<svg width="80" height="80" viewBox="0 0 80 80" fill="none" xmlns="http://www.w3.org/2000/svg">
<path d="M40.8975 2C62.3704 2 78 17.786 78 39.2158C77.9999 60.7501 62.2692 78 40.8975 78C19.4098 77.9998 2.00008 60.6304 2 39.2158C2 17.9025 19.3053 2.00022 40.8975 2Z" stroke="#EA4335" stroke-width="4"/>
<path d="M40.4191 12C56.245 12.0002 67.7452 23.6136 67.7452 39.4121C67.7451 55.315 56.1437 67.9998 40.4191 68C24.578 68 11.7454 55.1956 11.7452 39.4121C11.7452 23.7298 24.4735 12 40.4191 12Z" stroke="#4285F4" stroke-width="4"/>
<path d="M40.1945 22C50.3735 22.0001 57.745 29.4402 57.7452 39.6074C57.7452 49.8794 50.2724 57.9999 40.1945 58C30.0001 58 21.7452 49.7599 21.7452 39.6074C21.7455 29.5565 29.8958 22 40.1945 22Z" stroke="#34A853" stroke-width="4"/>
<path d="M39.9698 32C44.5022 32.0001 47.7451 35.2675 47.7452 39.8037C47.7452 44.4446 44.4011 47.9999 39.9698 48C35.4223 48 31.7452 44.325 31.7452 39.8037C31.7453 35.3838 35.318 32 39.9698 32Z" stroke="#FBBC05" stroke-width="4"/>
</svg>
